<svg xmlns="http://www.w3.org/2000/svg" width="150"  viewBox="0 0 261.708 95.945">
  <g id="oncosalud" transform="translate(-34.575 -120.975)">
    <g id="Grupo_110" data-name="Grupo 110" transform="translate(45.616 120.975)">
      <path id="Trazado_119" data-name="Trazado 119" d="M226.439,154.122v-.114c0-5.165-3.609-9.455-8.727-9.455-5.226,0-8.563,4.225-8.563,9.341v.113c0,5.109,3.607,9.442,8.673,9.442,5.275,0,8.617-4.276,8.617-9.328m-23.806,0v-.114a15.162,15.162,0,1,1,30.322-.113v.113a15.1,15.1,0,0,1-15.243,15.286,14.939,14.939,0,0,1-15.079-15.172" transform="translate(-112.783 -128.043)" fill="#005d83"/>
      <path id="Trazado_120" data-name="Trazado 120" d="M254.9,164.866l2.912-4.563a15.647,15.647,0,0,0,9.32,3.616c2.8,0,4.414-1.22,4.414-3.177v-.1c0-2.278-3.012-3.058-6.351-4.113-4.2-1.227-8.891-3.01-8.891-8.62V147.8c0-5.562,4.469-8.953,10.127-8.953a19.27,19.27,0,0,1,10.449,3.339l-2.586,4.786a16.136,16.136,0,0,0-8.022-2.789c-2.536,0-3.989,1.227-3.989,2.948v.113c0,2.114,3.066,3,6.412,4.11,4.145,1.337,8.83,3.286,8.83,8.56v.116c0,6.172-4.631,9.226-10.56,9.226a19.612,19.612,0,0,1-12.065-4.386" transform="translate(-133.671 -128.116)" fill="#005d83"/>
      <path id="Trazado_121" data-name="Trazado 121" d="M317.188,156.458a17.967,17.967,0,0,0-6.518-1.173c-4.093,0-6.517,1.724-6.517,4.565v.1c0,2.785,2.423,4.339,5.5,4.339,4.309,0,7.538-2.5,7.538-6.169Zm-.16,8.676a11.362,11.362,0,0,1-9.212,4.215c-5.387,0-10.126-3.165-10.126-9.063v-.111c0-6.5,4.9-9.613,11.527-9.613a23.353,23.353,0,0,1,7.866,1.224v-.559c0-4.055-2.478-6.284-7-6.284a19.247,19.247,0,0,0-8.137,1.839l-1.775-5.393a23.672,23.672,0,0,1,10.822-2.446c8.4,0,12.5,4.55,12.5,12.4v17.4c-6.324,1.573-6.464-3.612-6.464-3.612" transform="translate(-150.774 -128.157)" fill="#005d83"/>
      <path id="Trazado_122" data-name="Trazado 122" d="M356.58,121.271h-6.521l.006,40.4h6.515Z" transform="translate(-171.704 -121.093)" fill="#005d83"/>
      <path id="Trazado_123" data-name="Trazado 123" d="M370.313,158.361V139.683h6.522v16.675c0,4.562,2.205,7.17,6.084,7.17,3.768,0,6.406-2.719,6.406-7.28V139.683h6.52v29.358c-6.772,1.733-6.52-4.565-6.52-4.565-1.827,2.775-4.465,5.168-8.882,5.168-6.409,0-10.131-4.442-10.131-11.284" transform="translate(-179.799 -128.452)" fill="#005d83"/>
      <path id="Trazado_124" data-name="Trazado 124" d="M134.156,149.95v18.684H127.64V151.957c0-4.56-2.209-7.177-6.086-7.177-3.77,0-6.409,2.723-6.409,7.286v16.569h-6.516V139.276c6.768-1.739,6.516,4.563,6.516,4.563,1.829-2.781,4.468-5.174,8.884-5.174,6.409,0,10.127,4.451,10.127,11.286" transform="translate(-75.212 -128.045)" fill="#005d83"/>
      <path id="Trazado_125" data-name="Trazado 125" d="M442,146.94v-.114c0-5.668-3.881-9.392-8.24-9.392-4.473,0-8.188,3.556-8.188,9.392v.114c0,5.667,3.77,9.4,8.188,9.4,4.359,0,8.24-3.785,8.24-9.4m-23,0v-.114c0-9.727,6.41-15.235,13.191-15.235a11.671,11.671,0,0,1,9.7,5.177V120.975h6.519v40.589c-7.011,1.724-6.519-4.9-6.519-4.9-2.1,3.055-5.064,5.5-9.7,5.5-6.675,0-13.191-5.5-13.191-15.227" transform="translate(-199.257 -120.975)" fill="#005d83"/>
      <path id="Trazado_126" data-name="Trazado 126" d="M157.413,154.043v-.111c0-8.339,6.243-15.342,14.757-15.342a14.011,14.011,0,0,1,11.361,5.056l-4.037,4.5c-1.994-2.17-4.1-3.672-7.38-3.672-4.74,0-8.187,4.231-8.187,9.339v.115c0,5.226,3.5,9.45,8.508,9.45,3.07,0,5.336-1.5,7.381-3.666l3.93,4c-2.8,3.217-6.085,5.5-11.633,5.5-8.458,0-14.7-6.837-14.7-15.177" transform="translate(-94.71 -128.015)" fill="#005d83"/>
      <path id="Trazado_127" data-name="Trazado 127" d="M61.686,121.659a10.175,10.175,0,0,0-8.716,9.964,9.527,9.527,0,0,0,.06,1.392c.465,3.809,3.058,7.314,9.175,7.314,8.814,0,12.7,5.027,13.4,10.785a12.818,12.818,0,0,1-1.9,8.443,21.146,21.146,0,0,0,8.645-19.836c-1.465-11.956-12.309-19.154-20.67-18.062" transform="translate(-52.966 -121.205)" fill="#005d83"/>
    </g>
    <g id="Grupo_111" data-name="Grupo 111" transform="translate(151.275 176.974)">
      <path id="Trazado_128" data-name="Trazado 128" d="M297.1,233.164a4.275,4.275,0,0,0-2.46,1.046c-1.243.927-1.873,1.781-1.873,2.553a.761.761,0,0,0,.33.627,1.436,1.436,0,0,0,.98.325,4.582,4.582,0,0,0,2.862-1.276c1.028-.869,1.548-1.652,1.548-2.325,0-.441-.157-.95-1.388-.95" transform="translate(-254.465 -221.812)" fill="#005d83"/>
      <path id="Trazado_129" data-name="Trazado 129" d="M258.309,246.744c0-.083,0-.315-.381-.56a1.908,1.908,0,0,0-1.012-.255c-2.088,0-6.092,2.165-11.9,6.427l-1.247.913.806-1.341a15.932,15.932,0,0,1,2.888-3.272c1.157-1.041,1.22-1.413,1.22-1.473,0-.125-.1-.262-.289-.4a1.45,1.45,0,0,0-.878-.277c-.531,0-1.787.357-4.756,2.035a51.231,51.231,0,0,0-5.55,3.78L236,253.25l.761-1.339a32.325,32.325,0,0,1,3.281-4.357c1.21-1.334,1.309-1.676,1.319-1.726,0-.188,0-.557-.827-.557-.5,0-1.485.421-3.28,2.411a45.814,45.814,0,0,0-5.847,8.026c-1.622,2.768-2.446,4.687-2.446,5.709a.668.668,0,0,0,.293.545,1.126,1.126,0,0,0,.792.268,2.089,2.089,0,0,0,1.853-1.22,24.184,24.184,0,0,1,9.809-9.993l1.391-.786L242.1,251.5a40.215,40.215,0,0,0-2.954,4.213c-1.708,2.853-2.066,4.019-2.066,4.494,0,.36.114.735.974.735a2.177,2.177,0,0,0,1.785-1.113,29.217,29.217,0,0,1,4.12-4.744,33.887,33.887,0,0,1,6.589-4.894l2.1-1.159L250.9,250.7a21.127,21.127,0,0,0-2.227,2.393,8.069,8.069,0,0,0-1.9,4.877,4.285,4.285,0,0,0,1.2,3.038,2.8,2.8,0,0,0,2.078,1.056,1.729,1.729,0,0,0,1.1-.379.775.775,0,0,0,.367-.566.478.478,0,0,0-.184-.4l-1-.915a2.911,2.911,0,0,1-.78-2.251c0-2.427,2.375-5.4,7.257-9.087,1.3-.968,1.5-1.5,1.5-1.727" transform="translate(-228.966 -226.65)" fill="#005d83"/>
      <path id="Trazado_130" data-name="Trazado 130" d="M282.3,245.363a16.31,16.31,0,0,0-2,1.92,36.429,36.429,0,0,0-6.062,8.1c-2.071,4.011-2.379,5.082-2.379,5.363a.712.712,0,0,0,.3.532,1.4,1.4,0,0,0,1.007.365,1.686,1.686,0,0,0,1.607-1.189,52.691,52.691,0,0,1,3.152-6.112,49.831,49.831,0,0,1,5.62-7.351c.941-1,1.013-1.351,1.013-1.438a.575.575,0,0,0-.211-.379,1.232,1.232,0,0,0-.839-.27,1.986,1.986,0,0,0-1.211.46" transform="translate(-246.11 -226.503)" fill="#005d83"/>
      <path id="Trazado_131" data-name="Trazado 131" d="M336.432,216.036a1.564,1.564,0,0,0-.643-1.22,2.4,2.4,0,0,0-1.654-.562c-2.272,0-5.209,1.717-8.732,5.1a92.44,92.44,0,0,0-13.2,16.356c-1.64,2.545-2.821,4.751-3.794,6.628-1.657,3.179-.679,5.431-.63,5.531.9,1.983,2.654,2.533,5.066,1.629,1.945-.722,3.745-2.02,6.424-4.627,3.166-3.058,3.634-4.174,3.634-4.566,0-.125,0-.376-.67-.376a1.939,1.939,0,0,0-1.428.833,34.772,34.772,0,0,1-3.048,3.308c-.411.365-.794.711-1.156,1.048a11.635,11.635,0,0,1-2.322,1.835,5.718,5.718,0,0,1-2.311.65,1.485,1.485,0,0,1-1.348-.666c-.759-1.2.248-3.623.366-3.9.375-.874.932-2.021,1.7-3.5l.041-.063.069-.046c1.784-1.18,3.19-2.12,4.222-2.81a81.386,81.386,0,0,0,10.073-7.969c6.194-5.9,9.334-10.149,9.334-12.617M315.81,235.59l-1.139.707.719-1.156a83.565,83.565,0,0,1,9.014-12.181c3.743-4.131,6.284-6.137,7.771-6.137.925,0,1.027.645,1.027.924,0,.594-.342,1.8-3.283,5.357A58.648,58.648,0,0,1,315.81,235.59" transform="translate(-260.333 -214.254)" fill="#005d83"/>
      <path id="Trazado_132" data-name="Trazado 132" d="M337.164,250.83c-2.7,3-4.07,5.67-4.07,7.948a2.739,2.739,0,0,0,.645,1.836,3.224,3.224,0,0,0,2.637,1.1,6.654,6.654,0,0,0,4.147-1.7,30.887,30.887,0,0,0,2.84-2.622l.461-.466.064.66a10.864,10.864,0,0,0,.177,1.372,4.2,4.2,0,0,0,1.655,2.708,5.521,5.521,0,0,0,3.259,1.045,2.425,2.425,0,0,0,1.254-.31c.432-.274.432-.51.432-.59a.868.868,0,0,0-.638-.855,7.54,7.54,0,0,1-2.168-1.119,4.252,4.252,0,0,1-1.341-3.153,7.547,7.547,0,0,1,1.834-4.192c2.212-2.952,2.542-3.943,2.542-4.273a.784.784,0,0,0-.368-.6c-.737-.57-1.72-.3-2.7.591a8.78,8.78,0,0,0-1.7,2.363,23.585,23.585,0,0,1-3.1,4.691c-2.373,2.783-4.2,4.136-5.59,4.136a1.352,1.352,0,0,1-.893-.273,1.055,1.055,0,0,1-.36-.839c0-1.1.636-2.523,1.945-4.376a30.329,30.329,0,0,1,4.8-5.075c1.223-1.039,1.29-1.409,1.29-1.473,0-.1-.1-.221-.262-.35-.707-.52-1.647-.269-3.047.6a16.917,16.917,0,0,0-3.744,3.227" transform="translate(-270.582 -227.237)" fill="#005d83"/>
      <path id="Trazado_133" data-name="Trazado 133" d="M378.177,243.941a9.126,9.126,0,0,0-4.085,1.23,25.26,25.26,0,0,0-7.154,5.751c-2.1,2.446-3.169,4.611-3.169,6.434a3.157,3.157,0,0,0,.967,2.31,5.516,5.516,0,0,0,4.046,1.375c3.007,0,6.419-1.541,10.146-4.573,3.129-2.571,3.467-3.456,3.467-3.718a.526.526,0,0,0-.2-.312.851.851,0,0,0-.555-.2,2.473,2.473,0,0,0-1.476.929,33.429,33.429,0,0,1-4.689,3.738,11.088,11.088,0,0,1-5.794,2.2,2.928,2.928,0,0,1-2.137-.806,1.8,1.8,0,0,1-.59-1.306c0-1.342.888-3.089,2.714-5.338a19.784,19.784,0,0,1,5.221-4.657,6,6,0,0,1,2.565-.945c.893,0,.986.532.986.756a2.079,2.079,0,0,1-.556,1.221,6.707,6.707,0,0,1-1.468,1.476c-.712.478-.842.585-.863.606a.619.619,0,0,0-.206.507c0,.2,0,.563.747.563a4.413,4.413,0,0,0,2.7-1.46,5.471,5.471,0,0,0,2.048-3.821c0-.843-.277-1.967-2.671-1.967" transform="translate(-282.842 -226.119)" fill="#005d83"/>
      <path id="Trazado_134" data-name="Trazado 134" d="M450.754,246.4l.129-.218a3.293,3.293,0,0,0,.6-1.519,1.469,1.469,0,0,0-.772-1.169,4.332,4.332,0,0,0-2.469-.665,10.928,10.928,0,0,0-5.1,1.4,20.3,20.3,0,0,0-6.986,6.225,11.685,11.685,0,0,0-2.581,6.567,3,3,0,0,0,.651,1.949,3.506,3.506,0,0,0,2.926,1.292,6.845,6.845,0,0,0,4.513-2.073,21.217,21.217,0,0,0,2.415-2.664l.68-.874-.135,1.113c-.095.829-.148,1.423-.148,1.782a3.139,3.139,0,0,0,1.1,2.465,4.807,4.807,0,0,0,3.305,1.242,2.093,2.093,0,0,0,1.159-.312.651.651,0,0,0,.384-.584c0-.255-.076-.627-.739-.851a6.555,6.555,0,0,1-1.624-.685,2.616,2.616,0,0,1-1.075-2.159,9.51,9.51,0,0,1,1.2-3.948,19.47,19.47,0,0,1,2.227-3.646c.856-1.079.986-1.522.986-1.706a1.381,1.381,0,0,0-.477-.785Zm-1.569.52a5.3,5.3,0,0,0-1.021.744,22.851,22.851,0,0,0-1.9,2.56,45.567,45.567,0,0,1-3.379,4.585c-1.684,1.959-3.144,2.916-4.454,2.916a1.77,1.77,0,0,1-1.289-.446,1.743,1.743,0,0,1-.455-1.279c0-1.948,1.276-4.335,3.782-7.089,2.288-2.5,4.462-3.767,6.452-3.767a2.613,2.613,0,0,1,1.276.327,3.444,3.444,0,0,1,1.079.979l.219.293Z" transform="translate(-310.739 -225.676)" fill="#005d83"/>
      <path id="Trazado_135" data-name="Trazado 135" d="M466.662,270.28a2.561,2.561,0,0,0-.676,1.6c0,.271.057.567.763.567a1.6,1.6,0,0,0,1.4-.8,2.71,2.71,0,0,0,.551-1.509.431.431,0,0,0-.135-.333.874.874,0,0,0-.653-.252,1.626,1.626,0,0,0-1.254.721" transform="translate(-323.695 -236.358)" fill="#005d83"/>
      <path id="Trazado_136" data-name="Trazado 136" d="M417.668,240.508c0-.136,0-.349-.522-.349a2.578,2.578,0,0,0-1.638.983c-3.47,3.628-5.9,5.39-7.422,5.39-1.164,0-1.339-.665-1.339-1.064,0-.373.164-1.106,1.564-3.109a34.162,34.162,0,0,1,5.031-5.563c1.389-1.289,1.6-1.86,1.6-2.086,0-.091,0-.4-.563-.735a2.094,2.094,0,0,0-1.148-.348c-1.027,0-2.8.606-5.249,1.791a40.206,40.206,0,0,0-5.813,3.528l-.991.722.535-1.12a59.866,59.866,0,0,1,5.618-8.11c2.819-3.676,5.689-7.083,8.528-10.14.979-1,1.179-1.554,1.179-1.851a.867.867,0,0,0-.3-.645,1.344,1.344,0,0,0-1.017-.44,2.029,2.029,0,0,0-1.244.437,12.289,12.289,0,0,0-1.8,1.881c-3.309,3.932-6.355,7.779-9.047,11.425a156.69,156.69,0,0,0-8.767,13.318c-2.165,3.629-2.487,4.684-2.487,4.989a.858.858,0,0,0,.354.692,1.726,1.726,0,0,0,1.037.285,1.358,1.358,0,0,0,1.3-.9c3.757-6.35,8.408-10.525,13.833-12.427l1.09-.389-.758.9c-1.884,2.214-3.143,3.723-3.558,4.238-1.607,2.026-2.421,3.848-2.421,5.4a1.921,1.921,0,0,0,.411,1.208,2.55,2.55,0,0,0,2.209.9,8.427,8.427,0,0,0,3.511-.941,20.279,20.279,0,0,0,5.374-3.993c2.534-2.559,2.912-3.525,2.912-3.877" transform="translate(-294.273 -215.496)" fill="#005d83"/>
    </g>
    <g id="Grupo_113" data-name="Grupo 113" transform="translate(34.575 124.876)">
      <path id="Trazado_137" data-name="Trazado 137" d="M55.408,165.365a10.181,10.181,0,0,0,8.714-9.956,9,9,0,0,0-.061-1.4c-.466-3.806-3.058-7.32-9.177-7.32-8.81,0-12.7-5.025-13.4-10.783a12.789,12.789,0,0,1,1.9-8.436A21.124,21.124,0,0,0,34.736,147.3c1.469,11.964,12.306,19.155,20.673,18.065" transform="translate(-34.575 -127.473)" fill="#00abc8"/>
      <g id="Grupo_112" data-name="Grupo 112" transform="translate(3.682 66.477)">
        <path id="Trazado_138" data-name="Trazado 138" d="M56.725,238.206H40.709v3.219h6.123v17.211H50.6V241.425h6.123Z" transform="translate(-40.709 -238.206)" fill="#00abc8"/>
        <path id="Trazado_139" data-name="Trazado 139" d="M68.057,262.653a4.567,4.567,0,0,0,4.372-2.472l.067-.124h.364l.059.24v1.941h3.319V247.224H72.75v8.715a3.79,3.79,0,0,1-1.126,2.966,3.135,3.135,0,0,1-2.158.79c-1.828,0-2.8-1.072-2.8-3.1v-9.375H63.182v9.955a5.814,5.814,0,0,0,1.366,4.174,4.684,4.684,0,0,0,3.508,1.3" transform="translate(-49.691 -241.81)" fill="#00abc8"/>
        <rect id="Rectángulo_50" data-name="Rectángulo 50" width="3.486" height="20.429" transform="translate(35.279 0)" fill="#00abc8"/>
        <path id="Trazado_140" data-name="Trazado 140" d="M114.456,262.653a4.564,4.564,0,0,0,4.372-2.472l.067-.124h.368l.055.24v1.941h3.319V247.224h-3.487v8.715a3.8,3.8,0,0,1-1.124,2.966,3.129,3.129,0,0,1-2.155.79c-1.831,0-2.8-1.072-2.8-3.1v-9.375h-3.486v9.955a5.792,5.792,0,0,0,1.373,4.174,4.659,4.659,0,0,0,3.5,1.3" transform="translate(-68.235 -241.81)" fill="#00abc8"/>
        <path id="Trazado_141" data-name="Trazado 141" d="M143.158,258.344a2.674,2.674,0,0,1-2.283,1.165c-2.186,0-3.3-1.778-3.3-5.276a6.248,6.248,0,0,1,.683-3.061,2.962,2.962,0,0,1,2.674-1.665h.106c1.473,0,2.386.843,2.719,2.5h3.563a5.68,5.68,0,0,0-2.442-4.338,6.9,6.9,0,0,0-3.938-1.12,6.333,6.333,0,0,0-5.325,2.322,9.793,9.793,0,0,0-1.638,6.027,8.611,8.611,0,0,0,1.313,4.934,6.073,6.073,0,0,0,5.41,2.549,6.265,6.265,0,0,0,5.278-2.333,6.594,6.594,0,0,0,1.338-3.247h-3.532a3.128,3.128,0,0,1-.631,1.539" transform="translate(-77.987 -241.542)" fill="#00abc8"/>
        <path id="Trazado_142" data-name="Trazado 142" d="M165.581,246.172a2.511,2.511,0,0,1,2.431,1.236,4.456,4.456,0,0,1,.371,2.061v9.167h3.484V248.163a4.815,4.815,0,0,0-1.419-3.7,5.079,5.079,0,0,0-3.569-1.251,5.166,5.166,0,0,0-2.638.664,3.294,3.294,0,0,0-1.5,1.6l-.057.152h-.39l-.055-.239v-7.188h-3.485v20.429h3.485v-8.642a3.976,3.976,0,0,1,.943-2.814,3.152,3.152,0,0,1,2.4-1.007" transform="translate(-87.889 -238.206)" fill="#00abc8"/>
        <path id="Trazado_143" data-name="Trazado 143" d="M214.151,265.559v3.67q0,4.455-4.231,5.477v-1.541a3.774,3.774,0,0,0,1.522-.912,3.723,3.723,0,0,0,.846-2.433H209.92v-4.26Z" transform="translate(-108.337 -249.138)" fill="#00abc8"/>
        <path id="Trazado_144" data-name="Trazado 144" d="M187.3,262.385a6.276,6.276,0,0,0,4.688-2.173l.351-.368.046.516a8.165,8.165,0,0,0,.3,1.611h3.86v-.211c-.586-.325-.874-1.165-.874-2.574V250.8a3.593,3.593,0,0,0-2.073-3.457,7.826,7.826,0,0,0-3.675-.785,8.286,8.286,0,0,0-4.234.893,5.212,5.212,0,0,0-2.228,4.045h3.355a2.42,2.42,0,0,1,2.627-2.158c2.338,0,2.829,1.114,2.829,2.044,0,.555-.279,1.267-1.587,1.462l-3.551.554c-2.813.431-4.179,1.972-4.179,4.711a4.042,4.042,0,0,0,1.357,3.285,4.48,4.48,0,0,0,2.983,1m.041-6.457a5.575,5.575,0,0,1,1.98-.653,6.482,6.482,0,0,0,2.583-.795l.373-.3v2.468a2.931,2.931,0,0,1-1.165,2.41,4.12,4.12,0,0,1-2.6.892,2.056,2.056,0,0,1-1.355-.463,1.983,1.983,0,0,1-.711-1.642,2.192,2.192,0,0,1,.891-1.916" transform="translate(-97.564 -241.542)" fill="#00abc8"/>
      </g>
    </g>
  </g>
</svg>
