<svg xmlns="http://www.w3.org/2000/svg" width="223" height="43.373" viewBox="0 0 223 43.373">
  <g id="Group_13" data-name="Group 13" transform="translate(-86.912 -29.41)">
    <g id="Group_8" data-name="Group 8" transform="translate(86.912 29.41)">
      <path id="Path_28" data-name="Path 28" d="M98.889,88.567A18.418,18.418,0,0,1,86.914,72.648S86.772,69.9,88.9,69.712a76.652,76.652,0,0,1,12.871.313c3.436.562,3.124,3.811,2.124,6.622s-5,11.92-5,11.92" transform="translate(-86.912 -52.892)" fill="#00abc8"/>
      <path id="Path_29" data-name="Path 29" d="M130.205,104.55a18.582,18.582,0,0,1-7.347.156s-.522-.107,0-1,3.732-6.189,4.487-7.311,1.3-.928,1.953,1.567a58.423,58.423,0,0,1,1.218,5.744.817.817,0,0,1-.311.84" transform="translate(-107.79 -68.188)" fill="#9164cc"/>
      <path id="Path_30" data-name="Path 30" d="M147.9,77.218a18.429,18.429,0,0,0,9.665-22.956s-1.277-4.615-5.776-2.741-4.936,6-5,11.059-.118,13.057,0,14.057,1.109.581,1.109.581" transform="translate(-121.873 -42.074)" fill="#ff9e18"/>
      <path id="Path_31" data-name="Path 31" d="M119.061,33.9A18.41,18.41,0,0,0,89.929,40.95a.711.711,0,0,0,.308.852A43.006,43.006,0,0,0,101.9,43.989a19.621,19.621,0,0,0,15.162-6.56c2.662-3.072,2-3.526,2-3.526m-10.387,7.69c-1.4.795-3.312.065-4.276-1.63s-.614-3.714.783-4.509,3.312-.065,4.276,1.631.614,3.714-.783,4.509" transform="translate(-88.652 -29.41)" fill="#c2d500"/>
    </g>
    <g id="Group_11" data-name="Group 11" transform="translate(128.386 36.28)">
      <g id="Group_9" data-name="Group 9" transform="translate(0 0)">
        <path id="Path_32" data-name="Path 32" d="M187.489,53.005a11.025,11.025,0,0,1,2.131-3.691,9.758,9.758,0,0,1,3.413-2.471,12.077,12.077,0,0,1,9.126,0,9.787,9.787,0,0,1,3.4,2.471,11.026,11.026,0,0,1,2.131,3.691,13.784,13.784,0,0,1,.741,4.587,13.324,13.324,0,0,1-.741,4.494,10.738,10.738,0,0,1-2.131,3.63,9.8,9.8,0,0,1-3.4,2.425,12.267,12.267,0,0,1-9.126,0,9.767,9.767,0,0,1-3.413-2.425,10.738,10.738,0,0,1-2.131-3.63,13.314,13.314,0,0,1-.741-4.494,13.773,13.773,0,0,1,.741-4.587m4.432,7.289a7.285,7.285,0,0,0,1.035,2.362,5.3,5.3,0,0,0,1.853,1.684,6.423,6.423,0,0,0,5.56,0,5.313,5.313,0,0,0,1.853-1.684,7.3,7.3,0,0,0,1.034-2.362,11.218,11.218,0,0,0,.324-2.7,12.06,12.06,0,0,0-.324-2.811,7.449,7.449,0,0,0-1.034-2.425,5.267,5.267,0,0,0-1.853-1.7,6.423,6.423,0,0,0-5.56,0,5.253,5.253,0,0,0-1.853,1.7,7.432,7.432,0,0,0-1.035,2.425,12.083,12.083,0,0,0-.324,2.811,11.239,11.239,0,0,0,.324,2.7" transform="translate(-186.748 -45.948)" fill="#005d83"/>
        <path id="Path_33" data-name="Path 33" d="M246.816,61.249v2.224h.093a5.024,5.024,0,0,1,2.161-2.023,6.256,6.256,0,0,1,2.718-.634,7.442,7.442,0,0,1,2.888.479,4.289,4.289,0,0,1,1.776,1.328,5.158,5.158,0,0,1,.911,2.069,12.937,12.937,0,0,1,.263,2.7v9.822H253.24V68.2a5.6,5.6,0,0,0-.618-2.949,2.392,2.392,0,0,0-2.193-.973,3.038,3.038,0,0,0-2.594,1.065,5.921,5.921,0,0,0-.8,3.506v8.37h-4.386V61.249Z" transform="translate(-219.425 -54.64)" fill="#005d83"/>
        <path id="Path_34" data-name="Path 34" d="M290.731,64.122a3.087,3.087,0,0,0-1.761.479,3.8,3.8,0,0,0-1.158,1.235,5.327,5.327,0,0,0-.634,1.668,9.059,9.059,0,0,0-.185,1.806,8.687,8.687,0,0,0,.185,1.761,5.456,5.456,0,0,0,.6,1.622,3.453,3.453,0,0,0,1.127,1.189,3.094,3.094,0,0,0,1.729.464,3.215,3.215,0,0,0,2.425-.881,4.166,4.166,0,0,0,1.066-2.363h4.231a7.234,7.234,0,0,1-2.471,4.85,7.975,7.975,0,0,1-5.219,1.668,8.753,8.753,0,0,1-3.29-.6,7.3,7.3,0,0,1-2.548-1.684,7.656,7.656,0,0,1-1.637-2.579,8.936,8.936,0,0,1-.587-3.289,10.628,10.628,0,0,1,.54-3.443,7.721,7.721,0,0,1,1.591-2.748,7.267,7.267,0,0,1,2.563-1.807,8.716,8.716,0,0,1,3.459-.648,10.033,10.033,0,0,1,2.734.37,7.323,7.323,0,0,1,2.347,1.127,5.829,5.829,0,0,1,2.425,4.556h-4.293a2.941,2.941,0,0,0-3.243-2.749" transform="translate(-242.786 -54.64)" fill="#005d83"/>
        <path id="Path_35" data-name="Path 35" d="M323.469,65.775a7.3,7.3,0,0,1,4.261-4.355,9.113,9.113,0,0,1,3.4-.6,9.228,9.228,0,0,1,3.413.6,7.272,7.272,0,0,1,4.278,4.355,9.812,9.812,0,0,1,.587,3.475,9.677,9.677,0,0,1-.587,3.458,7.5,7.5,0,0,1-1.668,2.642,7.273,7.273,0,0,1-2.61,1.682,9.455,9.455,0,0,1-3.413.588,9.336,9.336,0,0,1-3.4-.588,7.3,7.3,0,0,1-2.594-1.682,7.5,7.5,0,0,1-1.667-2.642,9.657,9.657,0,0,1-.587-3.458,9.792,9.792,0,0,1,.587-3.475m3.984,5.344a4.949,4.949,0,0,0,.633,1.636,3.364,3.364,0,0,0,1.189,1.159,3.621,3.621,0,0,0,1.853.433A3.71,3.71,0,0,0,333,73.913a3.334,3.334,0,0,0,1.2-1.159,4.977,4.977,0,0,0,.633-1.636,9.362,9.362,0,0,0,.185-1.869,9.6,9.6,0,0,0-.185-1.885,4.832,4.832,0,0,0-.633-1.637A3.528,3.528,0,0,0,333,64.57a3.623,3.623,0,0,0-1.869-.448,3.373,3.373,0,0,0-3.043,1.606,4.805,4.805,0,0,0-.633,1.637,9.6,9.6,0,0,0-.185,1.885,9.362,9.362,0,0,0,.185,1.869" transform="translate(-266.329 -54.641)" fill="#005d83"/>
      </g>
      <g id="Group_10" data-name="Group 10" transform="translate(79.69 0.516)">
        <path id="Path_36" data-name="Path 36" d="M425.1,71.475a5.842,5.842,0,0,0,.922,1.981,5.255,5.255,0,0,0,1.6,1.451,4.483,4.483,0,0,0,2.328.574,4.632,4.632,0,0,0,3.266-1.088,5.715,5.715,0,0,0,1.633-2.9h1.905a7.616,7.616,0,0,1-2.222,4.113,6.627,6.627,0,0,1-4.581,1.452,7.263,7.263,0,0,1-3.19-.65,5.878,5.878,0,0,1-2.192-1.784,7.75,7.75,0,0,1-1.254-2.631,11.925,11.925,0,0,1-.409-3.159,11.3,11.3,0,0,1,.409-3.024,8.111,8.111,0,0,1,1.254-2.645,6.29,6.29,0,0,1,2.192-1.874,6.74,6.74,0,0,1,3.19-.711,6.172,6.172,0,0,1,5.367,2.736,8.206,8.206,0,0,1,1.194,2.812,12.307,12.307,0,0,1,.3,3.22h-12a8.437,8.437,0,0,0,.287,2.132m9.434-5.821a5.752,5.752,0,0,0-.983-1.769,4.887,4.887,0,0,0-1.542-1.24,4.427,4.427,0,0,0-2.056-.468,4.491,4.491,0,0,0-2.086.468,4.874,4.874,0,0,0-1.541,1.24,6.111,6.111,0,0,0-1.013,1.784,8.691,8.691,0,0,0-.5,2.071h10.1a6.931,6.931,0,0,0-.378-2.086" transform="translate(-404.494 -55.014)" fill="#005d83"/>
        <path id="Path_37" data-name="Path 37" d="M464.408,61.029v2.691h.06a4.572,4.572,0,0,1,1.936-2.283,5.685,5.685,0,0,1,3.053-.862,7.682,7.682,0,0,1,2.736.424,4.328,4.328,0,0,1,1.769,1.194,4.455,4.455,0,0,1,.937,1.89,10.624,10.624,0,0,1,.272,2.509V76.63h-1.905V66.894a9.027,9.027,0,0,0-.181-1.859,3.956,3.956,0,0,0-.635-1.5,3.082,3.082,0,0,0-1.225-1,4.491,4.491,0,0,0-1.92-.363,4.846,4.846,0,0,0-2.041.409,4.429,4.429,0,0,0-1.512,1.118,5.162,5.162,0,0,0-.967,1.693,6.889,6.889,0,0,0-.378,2.132v9.1H462.5v-15.6Z" transform="translate(-427.638 -55.014)" fill="#005d83"/>
        <path id="Path_38" data-name="Path 38" d="M501.96,71.475a5.842,5.842,0,0,0,.923,1.981,5.275,5.275,0,0,0,1.6,1.451,4.481,4.481,0,0,0,2.328.574,4.632,4.632,0,0,0,3.266-1.088,5.723,5.723,0,0,0,1.632-2.9h1.905a7.613,7.613,0,0,1-2.223,4.113,6.625,6.625,0,0,1-4.58,1.452,7.259,7.259,0,0,1-3.19-.65,5.879,5.879,0,0,1-2.193-1.784,7.758,7.758,0,0,1-1.255-2.631,11.959,11.959,0,0,1-.409-3.159,11.336,11.336,0,0,1,.409-3.024,8.12,8.12,0,0,1,1.255-2.645,6.291,6.291,0,0,1,2.193-1.874,6.737,6.737,0,0,1,3.19-.711,6.168,6.168,0,0,1,5.366,2.736,8.189,8.189,0,0,1,1.194,2.812,12.272,12.272,0,0,1,.3,3.22h-12a8.436,8.436,0,0,0,.287,2.132m9.433-5.821a5.732,5.732,0,0,0-.982-1.769,4.89,4.89,0,0,0-1.543-1.24,4.423,4.423,0,0,0-2.055-.468,4.494,4.494,0,0,0-2.087.468,4.895,4.895,0,0,0-1.542,1.24,6.168,6.168,0,0,0-1.013,1.784,8.689,8.689,0,0,0-.5,2.071h10.1a6.88,6.88,0,0,0-.378-2.086" transform="translate(-449.423 -55.014)" fill="#005d83"/>
        <path id="Path_39" data-name="Path 39" d="M540.069,54.844v14h-1.906v-14H535.5v-1.6h2.661V51.821a10.487,10.487,0,0,1,.152-1.844,3.59,3.59,0,0,1,.575-1.452,2.762,2.762,0,0,1,1.164-.937,4.613,4.613,0,0,1,1.889-.333c.282,0,.544.011.786.03s.514.051.817.091v1.633q-.394-.06-.726-.106a4.844,4.844,0,0,0-.665-.045,2.463,2.463,0,0,0-1.209.242,1.479,1.479,0,0,0-.62.649,2.486,2.486,0,0,0-.226.953q-.031.543-.03,1.179v1.36h3.084v1.6Z" transform="translate(-470.313 -47.228)" fill="#005d83"/>
        <path id="Path_40" data-name="Path 40" d="M560.262,50.31h-1.9V47.255h1.9Zm0,18.534h-1.9v-15.6h1.9Z" transform="translate(-483.674 -47.228)" fill="#005d83"/>
        <path id="Path_41" data-name="Path 41" d="M575.692,55.072v1.6h-3.175V67.2a3.418,3.418,0,0,0,.257,1.467q.258.529,1.285.59a14.814,14.814,0,0,0,1.633-.091v1.6q-.423,0-.846.03c-.283.02-.565.03-.847.03a3.764,3.764,0,0,1-2.661-.741,3.732,3.732,0,0,1-.726-2.736V56.674h-2.721v-1.6h2.721V50.385h1.9v4.687Z" transform="translate(-489.247 -49.057)" fill="#005d83"/>
        <path id="Path_42" data-name="Path 42" d="M601.039,64.067a3.1,3.1,0,0,0-.892-1.073,3.719,3.719,0,0,0-1.285-.62,5.9,5.9,0,0,0-1.542-.2,6.325,6.325,0,0,0-1.285.135,3.991,3.991,0,0,0-1.194.454,2.572,2.572,0,0,0-.876.832,2.29,2.29,0,0,0-.333,1.27,1.778,1.778,0,0,0,.318,1.073,2.8,2.8,0,0,0,.8.741,5.067,5.067,0,0,0,1.058.5q.574.2,1.058.318l2.54.574a7.263,7.263,0,0,1,1.618.438,5.232,5.232,0,0,1,1.421.832,4.074,4.074,0,0,1,1.013,1.27,3.818,3.818,0,0,1,.393,1.783,3.907,3.907,0,0,1-.574,2.162,4.693,4.693,0,0,1-1.466,1.451,6.253,6.253,0,0,1-2.011.8,10.457,10.457,0,0,1-2.207.241,7.17,7.17,0,0,1-4.46-1.3,5.53,5.53,0,0,1-1.95-4.172h1.9a3.757,3.757,0,0,0,1.407,2.917,5.093,5.093,0,0,0,3.19.983,7.137,7.137,0,0,0,1.436-.151,4.617,4.617,0,0,0,1.376-.513,3.292,3.292,0,0,0,1.043-.923,2.269,2.269,0,0,0,.409-1.375,2.188,2.188,0,0,0-.288-1.164,2.494,2.494,0,0,0-.771-.786,4.9,4.9,0,0,0-1.1-.529q-.619-.211-1.255-.363l-2.449-.544a13.878,13.878,0,0,1-1.723-.559,5.47,5.47,0,0,1-1.375-.787,3.276,3.276,0,0,1-.922-1.149,3.8,3.8,0,0,1-.333-1.678,3.755,3.755,0,0,1,.529-2.026,4.128,4.128,0,0,1,1.375-1.36,6.448,6.448,0,0,1,1.89-.756,9.17,9.17,0,0,1,2.071-.242,7.641,7.641,0,0,1,2.192.3,5.036,5.036,0,0,1,1.783.937,4.608,4.608,0,0,1,1.225,1.572,5.649,5.649,0,0,1,.513,2.208h-1.9a3.6,3.6,0,0,0-.362-1.527" transform="translate(-502.862 -55.014)" fill="#005d83"/>
        <path id="Path_43" data-name="Path 43" d="M387.721,47.189a13.017,13.017,0,0,1,2.618.258,6.33,6.33,0,0,1,2.21.877,4.662,4.662,0,0,1,1.529,1.635,5.541,5.541,0,0,1,.3,4.178,5.011,5.011,0,0,1-.772,1.453,4.912,4.912,0,0,1-1.181,1.105,4.376,4.376,0,0,1-1.529.635v.061a5.092,5.092,0,0,1,3.33,1.71,5.251,5.251,0,0,1,1.241,3.558,8.55,8.55,0,0,1-.09,1.165,5.743,5.743,0,0,1-.364,1.332,5.589,5.589,0,0,1-.788,1.347,4.647,4.647,0,0,1-1.377,1.166,8.268,8.268,0,0,1-2.119.818,12.419,12.419,0,0,1-3.012.318h-9.143V47.189Zm0,9.476a7.125,7.125,0,0,0,2.15-.288,4.462,4.462,0,0,0,1.513-.787,3.24,3.24,0,0,0,.909-1.166,3.4,3.4,0,0,0,.3-1.422q0-4.057-4.874-4.057h-7.084v7.72Zm0,10.384a11.6,11.6,0,0,0,2.18-.2,4.985,4.985,0,0,0,1.817-.712,3.633,3.633,0,0,0,1.241-1.377,4.615,4.615,0,0,0,.454-2.165,3.594,3.594,0,0,0-1.468-3.133,7.234,7.234,0,0,0-4.224-1.044h-7.084v8.628Z" transform="translate(-378.578 -47.189)" fill="#005d83"/>
      </g>
    </g>
    <g id="Group_12" data-name="Group 12" transform="translate(228.493 63.19)">
      <path id="Path_44" data-name="Path 44" d="M431.048,120.172l-3.321-9.447h1.35l2.7,8.19h.027l2.726-8.19h1.31l-3.361,9.447Z" transform="translate(-427.727 -110.725)" fill="#00abc8"/>
      <path id="Path_45" data-name="Path 45" d="M448.176,112.1v-1.376H449.3V112.1Zm1.125,1.231v6.841h-1.125v-6.841Z" transform="translate(-439.681 -110.725)" fill="#00abc8"/>
      <path id="Path_46" data-name="Path 46" d="M455.43,123.841,452.89,117h1.257l1.918,5.7h.027l1.866-5.7h1.178l-2.5,6.841Z" transform="translate(-442.437 -114.393)" fill="#00abc8"/>
      <path id="Path_47" data-name="Path 47" d="M474.125,123.181a3.106,3.106,0,0,1-1.932.582,3.518,3.518,0,0,1-1.422-.265,2.805,2.805,0,0,1-1.012-.741,3.149,3.149,0,0,1-.615-1.138,5.479,5.479,0,0,1-.232-1.443,4.121,4.121,0,0,1,.238-1.429,3.419,3.419,0,0,1,.668-1.125,3.043,3.043,0,0,1,1.019-.741,3.115,3.115,0,0,1,1.29-.264,2.806,2.806,0,0,1,1.515.377,3,3,0,0,1,.966.959,3.8,3.8,0,0,1,.5,1.27,5.458,5.458,0,0,1,.113,1.31H470.1a2.72,2.72,0,0,0,.106.853,1.927,1.927,0,0,0,.384.715,1.884,1.884,0,0,0,.675.5,2.324,2.324,0,0,0,.966.185,1.945,1.945,0,0,0,1.171-.331,1.6,1.6,0,0,0,.6-1.006h1.112A2.734,2.734,0,0,1,474.125,123.181Zm-.271-4.393a1.927,1.927,0,0,0-.41-.615,1.957,1.957,0,0,0-.609-.41,1.935,1.935,0,0,0-.774-.152,1.965,1.965,0,0,0-.787.152,1.818,1.818,0,0,0-.6.417,2,2,0,0,0-.4.615,2.334,2.334,0,0,0-.172.748h3.93A2.309,2.309,0,0,0,473.853,118.788Z" transform="translate(-451.802 -114.17)" fill="#00abc8"/>
      <path id="Path_48" data-name="Path 48" d="M494.766,122.089a1.2,1.2,0,0,0,.417.41,1.871,1.871,0,0,0,.582.218,3.307,3.307,0,0,0,.668.066,4.093,4.093,0,0,0,.555-.039,2.026,2.026,0,0,0,.536-.146,1,1,0,0,0,.4-.311.828.828,0,0,0,.159-.523.75.75,0,0,0-.331-.662,2.828,2.828,0,0,0-.827-.364q-.5-.139-1.078-.251a5.576,5.576,0,0,1-1.078-.317,2.232,2.232,0,0,1-.827-.576,1.494,1.494,0,0,1-.331-1.032,1.64,1.64,0,0,1,.232-.887,1.89,1.89,0,0,1,.6-.6,2.744,2.744,0,0,1,.82-.344,3.784,3.784,0,0,1,.906-.112,5.405,5.405,0,0,1,1.071.1,2.484,2.484,0,0,1,.867.344,1.782,1.782,0,0,1,.6.662,2.515,2.515,0,0,1,.265,1.039h-1.125a1.146,1.146,0,0,0-.172-.549,1.127,1.127,0,0,0-.371-.35,1.673,1.673,0,0,0-.5-.192,2.541,2.541,0,0,0-.549-.06,3.333,3.333,0,0,0-.51.04,1.711,1.711,0,0,0-.47.139.949.949,0,0,0-.344.265.667.667,0,0,0-.132.43.631.631,0,0,0,.205.483,1.624,1.624,0,0,0,.523.317,4.472,4.472,0,0,0,.715.212q.4.086.794.179a8.551,8.551,0,0,1,.827.225,2.7,2.7,0,0,1,.715.351,1.718,1.718,0,0,1,.5.549,1.619,1.619,0,0,1,.192.821,1.9,1.9,0,0,1-.258,1.032,2.02,2.02,0,0,1-.675.662,2.824,2.824,0,0,1-.939.35,5.534,5.534,0,0,1-1.039.1,4.815,4.815,0,0,1-1.085-.119,2.654,2.654,0,0,1-.913-.39,1.987,1.987,0,0,1-.635-.715,2.468,2.468,0,0,1-.265-1.078h1.125A1.264,1.264,0,0,0,494.766,122.089Z" transform="translate(-466.159 -114.17)" fill="#00abc8"/>
      <path id="Path_49" data-name="Path 49" d="M514.573,123.763a.967.967,0,0,1-.695-.245,1.063,1.063,0,0,1-.258-.8,2.691,2.691,0,0,1-1.078.8,3.565,3.565,0,0,1-1.33.245,3.684,3.684,0,0,1-.873-.1,1.961,1.961,0,0,1-.722-.331,1.616,1.616,0,0,1-.489-.6,1.979,1.979,0,0,1-.179-.88,2.009,2.009,0,0,1,.2-.953,1.73,1.73,0,0,1,.523-.6,2.4,2.4,0,0,1,.741-.351q.417-.119.853-.2.463-.092.88-.139a4.879,4.879,0,0,0,.734-.132,1.224,1.224,0,0,0,.5-.252.613.613,0,0,0,.185-.483,1.124,1.124,0,0,0-.139-.6.953.953,0,0,0-.357-.344,1.448,1.448,0,0,0-.49-.159,3.679,3.679,0,0,0-.536-.04,2.374,2.374,0,0,0-1.191.272,1.149,1.149,0,0,0-.516,1.025h-1.125a2.428,2.428,0,0,1,.265-1.072,2,2,0,0,1,.635-.708,2.665,2.665,0,0,1,.913-.39,4.813,4.813,0,0,1,1.085-.119,6.409,6.409,0,0,1,.919.066,2.4,2.4,0,0,1,.827.271,1.592,1.592,0,0,1,.6.575,1.847,1.847,0,0,1,.225.966v3.52a2.636,2.636,0,0,0,.046.582c.031.124.135.185.311.185a1.1,1.1,0,0,0,.344-.066v.874A1.6,1.6,0,0,1,514.573,123.763ZM513,120.316q-.345.073-.721.119t-.761.106a2.808,2.808,0,0,0-.688.192,1.253,1.253,0,0,0-.5.377,1.06,1.06,0,0,0-.191.668.91.91,0,0,0,.113.469.937.937,0,0,0,.291.311,1.221,1.221,0,0,0,.423.172,2.34,2.34,0,0,0,.5.053,2.655,2.655,0,0,0,.953-.152,2,2,0,0,0,.648-.384,1.514,1.514,0,0,0,.371-.5,1.273,1.273,0,0,0,.119-.509v-1.151A1.4,1.4,0,0,1,513,120.316Z" transform="translate(-475.208 -114.17)" fill="#00abc8"/>
      <path id="Path_50" data-name="Path 50" d="M527.624,110.725v9.447H526.5v-9.447Z" transform="translate(-485.467 -110.725)" fill="#00abc8"/>
      <path id="Path_51" data-name="Path 51" d="M537.41,123.841v-1.085h-.027a2.3,2.3,0,0,1-.913.933,2.739,2.739,0,0,1-1.31.3,3.075,3.075,0,0,1-1.125-.179,1.794,1.794,0,0,1-.727-.51,1.915,1.915,0,0,1-.39-.787,4.222,4.222,0,0,1-.113-1.012V117h1.125v4.631a1.36,1.36,0,0,0,.37,1.006,1.378,1.378,0,0,0,1.019.37,2.291,2.291,0,0,0,.893-.159,1.666,1.666,0,0,0,.629-.45,1.94,1.94,0,0,0,.377-.681,2.779,2.779,0,0,0,.126-.853V117h1.124v6.841Z" transform="translate(-489.154 -114.393)" fill="#00abc8"/>
      <path id="Path_52" data-name="Path 52" d="M554.345,120.172v-.926h-.027a1.653,1.653,0,0,1-.873.82,3.331,3.331,0,0,1-1.31.252,3.087,3.087,0,0,1-1.383-.291,2.846,2.846,0,0,1-.979-.781,3.4,3.4,0,0,1-.589-1.138,4.668,4.668,0,0,1-.2-1.376,4.822,4.822,0,0,1,.192-1.376,3.238,3.238,0,0,1,.582-1.131,2.814,2.814,0,0,1,.979-.768,3.118,3.118,0,0,1,1.37-.284,3.33,3.33,0,0,1,.569.053,2.889,2.889,0,0,1,.609.179,2.6,2.6,0,0,1,.575.331,1.816,1.816,0,0,1,.457.51h.027v-3.52h1.125v9.447Zm-4.042-2.428a2.519,2.519,0,0,0,.384.814,1.881,1.881,0,0,0,.661.569,2.009,2.009,0,0,0,.946.211,1.856,1.856,0,0,0,1.614-.814,2.466,2.466,0,0,0,.364-.827,4,4,0,0,0-.007-1.912,2.412,2.412,0,0,0-.377-.827,1.926,1.926,0,0,0-.668-.575,2.086,2.086,0,0,0-.992-.219,1.932,1.932,0,0,0-.966.225,1.792,1.792,0,0,0-.635.6,2.585,2.585,0,0,0-.344.847,4.5,4.5,0,0,0-.106.979A3.491,3.491,0,0,0,550.3,117.744Z" transform="translate(-498.613 -110.725)" fill="#00abc8"/>
      <path id="Path_53" data-name="Path 53" d="M572.893,123.763a.967.967,0,0,1-.695-.245,1.064,1.064,0,0,1-.258-.8,2.69,2.69,0,0,1-1.078.8,3.566,3.566,0,0,1-1.33.245,3.686,3.686,0,0,1-.873-.1,1.963,1.963,0,0,1-.721-.331,1.612,1.612,0,0,1-.489-.6,1.979,1.979,0,0,1-.179-.88,2.008,2.008,0,0,1,.2-.953,1.728,1.728,0,0,1,.523-.6,2.394,2.394,0,0,1,.741-.351q.417-.119.854-.2.463-.092.88-.139a4.893,4.893,0,0,0,.734-.132,1.224,1.224,0,0,0,.5-.252.614.614,0,0,0,.185-.483,1.123,1.123,0,0,0-.139-.6.953.953,0,0,0-.357-.344,1.45,1.45,0,0,0-.49-.159,3.678,3.678,0,0,0-.536-.04,2.374,2.374,0,0,0-1.191.272,1.15,1.15,0,0,0-.516,1.025h-1.125a2.427,2.427,0,0,1,.265-1.072,2,2,0,0,1,.635-.708,2.659,2.659,0,0,1,.913-.39,4.811,4.811,0,0,1,1.085-.119,6.408,6.408,0,0,1,.92.066,2.4,2.4,0,0,1,.827.271,1.588,1.588,0,0,1,.6.575,1.842,1.842,0,0,1,.225.966v3.52a2.633,2.633,0,0,0,.046.582q.046.186.311.185a1.1,1.1,0,0,0,.344-.066v.874A1.6,1.6,0,0,1,572.893,123.763Zm-1.575-3.447q-.344.073-.721.119t-.761.106a2.81,2.81,0,0,0-.688.192,1.254,1.254,0,0,0-.5.377,1.057,1.057,0,0,0-.192.668.913.913,0,0,0,.112.469.938.938,0,0,0,.291.311,1.223,1.223,0,0,0,.423.172,2.341,2.341,0,0,0,.5.053,2.658,2.658,0,0,0,.953-.152,2,2,0,0,0,.648-.384,1.517,1.517,0,0,0,.371-.5,1.271,1.271,0,0,0,.119-.509v-1.151A1.393,1.393,0,0,1,571.318,120.316Z" transform="translate(-509.301 -114.17)" fill="#00abc8"/>
      <path id="Path_54" data-name="Path 54" d="M585.88,110.725v3.533h.026a1.685,1.685,0,0,1,.874-.827,3.258,3.258,0,0,1,1.31-.258,3.085,3.085,0,0,1,1.382.291,2.815,2.815,0,0,1,.98.787,3.491,3.491,0,0,1,.589,1.145,4.681,4.681,0,0,1,.2,1.376,4.823,4.823,0,0,1-.192,1.376,3.233,3.233,0,0,1-.582,1.131,2.744,2.744,0,0,1-.979.761,3.176,3.176,0,0,1-1.369.278,3.38,3.38,0,0,1-.562-.053,3.126,3.126,0,0,1-.615-.172,2.385,2.385,0,0,1-.576-.324,1.808,1.808,0,0,1-.457-.509h-.026v.913h-1.125v-9.447Zm4.042,5.035a2.507,2.507,0,0,0-.383-.814,1.878,1.878,0,0,0-.662-.569,2.013,2.013,0,0,0-.946-.212,1.858,1.858,0,0,0-1.614.814,2.458,2.458,0,0,0-.364.827,4,4,0,0,0,.007,1.912,2.406,2.406,0,0,0,.377.827,1.927,1.927,0,0,0,.668.576,2.089,2.089,0,0,0,.992.218,1.922,1.922,0,0,0,.972-.225,1.811,1.811,0,0,0,.629-.6,2.6,2.6,0,0,0,.344-.847,4.5,4.5,0,0,0,.106-.979A3.491,3.491,0,0,0,589.922,115.76Z" transform="translate(-519.523 -110.725)" fill="#00abc8"/>
      <path id="Path_55" data-name="Path 55" d="M604.227,110.725v9.447H603.1v-9.447Z" transform="translate(-530.248 -110.725)" fill="#00abc8"/>
      <path id="Path_56" data-name="Path 56" d="M613.73,123.181a3.107,3.107,0,0,1-1.932.582,3.518,3.518,0,0,1-1.422-.265,2.8,2.8,0,0,1-1.012-.741,3.145,3.145,0,0,1-.616-1.138,5.483,5.483,0,0,1-.231-1.443,4.119,4.119,0,0,1,.238-1.429,3.418,3.418,0,0,1,.668-1.125,3.04,3.04,0,0,1,1.019-.741,3.115,3.115,0,0,1,1.29-.264,2.807,2.807,0,0,1,1.515.377,3,3,0,0,1,.966.959,3.8,3.8,0,0,1,.5,1.27,5.459,5.459,0,0,1,.112,1.31h-5.12a2.706,2.706,0,0,0,.105.853,1.927,1.927,0,0,0,.384.715,1.886,1.886,0,0,0,.675.5,2.324,2.324,0,0,0,.966.185,1.947,1.947,0,0,0,1.171-.331,1.6,1.6,0,0,0,.6-1.006h1.111A2.734,2.734,0,0,1,613.73,123.181Zm-.271-4.393a1.936,1.936,0,0,0-.41-.615,1.957,1.957,0,0,0-.609-.41,1.933,1.933,0,0,0-.774-.152,1.965,1.965,0,0,0-.787.152,1.821,1.821,0,0,0-.6.417,1.991,1.991,0,0,0-.4.615,2.336,2.336,0,0,0-.172.748h3.93A2.312,2.312,0,0,0,613.458,118.788Z" transform="translate(-533.413 -114.17)" fill="#00abc8"/>
    </g>
  </g>
</svg>
